<svg width="257" height="67" viewBox="0 0 257 67" fill="none" xmlns="http://www.w3.org/2000/svg">
<path d="M82.2193 37.1992C88.2277 37.1992 92.4967 34.0369 92.4967 28.7006C92.4967 22.8504 87.7928 21.3878 83.6028 20.1229C79.2942 18.8185 78.6222 17.9488 78.6222 16.6839C78.6222 15.5771 79.6105 14.5889 81.5869 14.5889C84.1167 14.5889 85.4211 15.8143 86.3698 17.7907L91.7062 14.668C89.6902 10.5965 86.1326 8.42249 81.5869 8.42249C76.8039 8.42249 72.2977 11.5057 72.2977 16.842C72.2977 22.1389 76.3296 24.1153 80.4406 25.2616C84.591 26.4079 86.1722 27.0799 86.1722 28.7796C86.1722 29.8469 85.4211 31.0328 82.417 31.0328C79.2942 31.0328 77.5945 29.4911 76.6063 27.1985L71.1514 30.3608C72.693 34.4322 76.4087 37.1992 82.2193 37.1992Z" fill="#07847F"/>
<path d="M107.279 16.3282C104.63 16.3282 102.694 17.2373 101.389 18.7394V16.8816H95.4598V44.5515H101.389V34.788C102.694 36.29 104.63 37.1992 107.279 37.1992C112.457 37.1992 116.726 32.6534 116.726 26.7637C116.726 20.8739 112.457 16.3282 107.279 16.3282ZM106.093 31.5862C103.366 31.5862 101.389 29.7283 101.389 26.7637C101.389 23.799 103.366 21.9412 106.093 21.9412C108.82 21.9412 110.797 23.799 110.797 26.7637C110.797 29.7283 108.82 31.5862 106.093 31.5862Z" fill="#07847F"/>
<path d="M134.437 16.8816V18.7394C133.132 17.2373 131.195 16.3282 128.547 16.3282C123.369 16.3282 119.1 20.8739 119.1 26.7637C119.1 32.6534 123.369 37.1992 128.547 37.1992C131.195 37.1992 133.132 36.29 134.437 34.788V36.6458H140.366V16.8816H134.437ZM129.733 31.5862C127.005 31.5862 125.029 29.7283 125.029 26.7637C125.029 23.799 127.005 21.9412 129.733 21.9412C132.46 21.9412 134.437 23.799 134.437 26.7637C134.437 29.7283 132.46 31.5862 129.733 31.5862Z" fill="#07847F"/>
<path d="M154.203 37.1992C158.077 37.1992 161.437 35.1832 163.136 32.1L157.958 29.1354C157.326 30.5189 155.863 31.349 154.124 31.349C151.554 31.349 149.657 29.4911 149.657 26.7637C149.657 24.0362 151.554 22.1784 154.124 22.1784C155.863 22.1784 157.286 23.0085 157.958 24.392L163.136 21.3878C161.437 18.3441 158.037 16.3282 154.203 16.3282C148.194 16.3282 143.728 20.8739 143.728 26.7637C143.728 32.6534 148.194 37.1992 154.203 37.1992Z" fill="#07847F"/>
<path d="M170.433 29.1354H184.466C184.624 28.3843 184.703 27.5938 184.703 26.7637C184.703 20.7949 180.434 16.3282 174.663 16.3282C168.417 16.3282 164.148 20.8739 164.148 26.7637C164.148 32.6534 168.338 37.1992 175.098 37.1992C178.853 37.1992 181.778 35.8157 183.715 33.1278L178.971 30.4003C178.181 31.2699 176.797 31.9024 175.177 31.9024C173.003 31.9024 171.184 31.1909 170.433 29.1354ZM170.315 24.7082C170.868 22.6923 172.37 21.5855 174.623 21.5855C176.402 21.5855 178.181 22.4156 178.813 24.7082H170.315Z" fill="#07847F"/>
<path d="M201.225 15.7521C198.617 15.7521 196.64 16.7008 195.573 18.1633V8.39978H189.644V36.0697H195.573V25.2784C195.573 22.4719 197.075 21.207 199.249 21.207C201.146 21.207 202.688 22.3533 202.688 24.8041V36.0697H208.617V23.9345C208.617 18.5981 205.218 15.7521 201.225 15.7521Z" fill="#FD6B36"/>
<path d="M225.457 16.3055V27.0967C225.457 29.9033 223.955 31.1682 221.78 31.1682C219.883 31.1682 218.342 30.0218 218.342 27.5711V16.3055H212.412V28.4407C212.412 33.777 215.812 36.6231 219.804 36.6231C222.413 36.6231 224.389 35.6744 225.457 34.2119V36.0697H231.386V16.3055H225.457Z" fill="#FD6B36"/>
<path d="M247.553 15.7521C244.905 15.7521 242.968 16.6612 241.664 18.1633V8.39978H235.734V36.0697H241.664V34.2119C242.968 35.7139 244.905 36.6231 247.553 36.6231C252.732 36.6231 257.001 32.0773 257.001 26.1876C257.001 20.2978 252.732 15.7521 247.553 15.7521ZM246.367 31.01C243.64 31.01 241.664 29.1522 241.664 26.1876C241.664 23.2229 243.64 21.3651 246.367 21.3651C249.095 21.3651 251.071 23.2229 251.071 26.1876C251.071 29.1522 249.095 31.01 246.367 31.01Z" fill="#FD6B36"/>
<path d="M77.0808 46.0338H72.377V59.8688H73.4245V54.5917H77.0808C79.5711 54.5917 81.3894 52.7536 81.3894 50.3226C81.3894 47.8719 79.5711 46.0338 77.0808 46.0338ZM77.0808 53.6035H73.4245V47.022H77.0808C78.9782 47.022 80.3419 48.4055 80.3419 50.3226C80.3419 52.22 78.9782 53.6035 77.0808 53.6035Z" fill="#ADAFBB"/>
<path d="M84.4756 51.9236V49.9867H83.4874V59.8688H84.4756V54.3743C84.4756 51.8445 86.0765 50.797 87.7762 50.797V49.8483C86.4322 49.8483 85.1476 50.3622 84.4756 51.9236Z" fill="#ADAFBB"/>
<path d="M93.6084 60.0862C96.4742 60.0862 98.7866 57.8528 98.7866 54.9277C98.7866 52.0026 96.4742 49.7693 93.6084 49.7693C90.7228 49.7693 88.4104 52.0026 88.4104 54.9277C88.4104 57.8528 90.7228 60.0862 93.6084 60.0862ZM93.6084 59.1375C91.2564 59.1375 89.4183 57.2797 89.4183 54.9277C89.4183 52.5758 91.2564 50.7179 93.6084 50.7179C95.9603 50.7179 97.7786 52.5758 97.7786 54.9277C97.7786 57.2797 95.9603 59.1375 93.6084 59.1375Z" fill="#ADAFBB"/>
<path d="M106.303 49.7693C104.386 49.7693 102.864 50.7575 102.054 52.2793V49.9867H101.066V63.8216H102.054V57.5761C102.864 59.098 104.386 60.0862 106.303 60.0862C109.13 60.0862 111.422 57.8528 111.422 54.9277C111.422 52.0026 109.13 49.7693 106.303 49.7693ZM106.244 59.1375C103.892 59.1375 102.054 57.2797 102.054 54.9277C102.054 52.5758 103.892 50.7179 106.244 50.7179C108.596 50.7179 110.434 52.5758 110.434 54.9277C110.434 57.2797 108.596 59.1375 106.244 59.1375Z" fill="#ADAFBB"/>
<path d="M118.572 50.9551V49.9867H115.628V47.2197L114.62 47.5161V49.9867H112.446V50.9551H114.62V57.3785C114.62 59.6316 115.983 60.2641 118.572 59.8688V58.9794C116.556 59.1573 115.628 59.1177 115.628 57.3785V50.9551H118.572Z" fill="#ADAFBB"/>
<path d="M124.693 49.7693C121.67 49.7693 119.575 52.0224 119.575 54.9277C119.575 57.9121 121.729 60.0862 124.773 60.0862C126.729 60.0862 128.271 59.1968 129.081 57.8528L128.211 57.3389C127.638 58.3865 126.413 59.1375 124.792 59.1375C122.539 59.1375 120.839 57.6749 120.602 55.4416H129.555C129.555 55.2835 129.575 55.1254 129.575 54.9672C129.575 52.2595 127.698 49.7693 124.693 49.7693ZM124.693 50.7179C126.63 50.7179 128.33 52.0619 128.547 54.4731H120.602C120.8 52.2793 122.44 50.7179 124.693 50.7179Z" fill="#ADAFBB"/>
<path d="M136.312 60.0862C138.249 60.0862 139.909 59.098 140.7 57.5761L139.87 57.082C139.218 58.3074 137.913 59.1375 136.312 59.1375C133.921 59.1375 132.122 57.2797 132.122 54.9277C132.122 52.5758 133.921 50.7179 136.312 50.7179C137.893 50.7179 139.237 51.5283 139.81 52.7734L140.621 52.2991C139.909 50.7575 138.249 49.7693 136.312 49.7693C133.328 49.7693 131.114 52.0026 131.114 54.9277C131.114 57.8528 133.328 60.0862 136.312 60.0862Z" fill="#ADAFBB"/>
<path d="M147.292 49.7693C145.77 49.7693 144.505 50.4017 143.754 51.8643V46.0338H142.766V59.8688H143.754V54.651C143.754 51.9828 145.276 50.7179 147.213 50.7179C149.071 50.7179 150.118 51.9038 150.118 53.7221V59.8688H151.126V53.7221C151.126 51.3306 149.644 49.7693 147.292 49.7693Z" fill="#ADAFBB"/>
<path d="M163.52 60.0862C165.457 60.0862 167.117 59.098 167.907 57.5761L167.077 57.082C166.425 58.3074 165.121 59.1375 163.52 59.1375C161.128 59.1375 159.33 57.2797 159.33 54.9277C159.33 52.5758 161.128 50.7179 163.52 50.7179C165.101 50.7179 166.445 51.5283 167.018 52.7734L167.828 52.2991C167.117 50.7575 165.457 49.7693 163.52 49.7693C160.535 49.7693 158.322 52.0026 158.322 54.9277C158.322 57.8528 160.535 60.0862 163.52 60.0862Z" fill="#ADAFBB"/>
<path d="M174.403 60.0862C177.269 60.0862 179.581 57.8528 179.581 54.9277C179.581 52.0026 177.269 49.7693 174.403 49.7693C171.518 49.7693 169.205 52.0026 169.205 54.9277C169.205 57.8528 171.518 60.0862 174.403 60.0862ZM174.403 59.1375C172.051 59.1375 170.213 57.2797 170.213 54.9277C170.213 52.5758 172.051 50.7179 174.403 50.7179C176.755 50.7179 178.573 52.5758 178.573 54.9277C178.573 57.2797 176.755 59.1375 174.403 59.1375Z" fill="#ADAFBB"/>
<path d="M192.415 49.7693C191.091 49.7693 189.826 50.4017 189.114 51.7852C188.6 50.4808 187.474 49.7693 186.031 49.7693C184.766 49.7693 183.58 50.3226 182.849 51.6864V49.9867H181.861V59.8688H182.849V54.3546C182.849 51.8247 184.292 50.7179 185.912 50.7179C187.434 50.7179 188.442 51.7259 188.442 53.6035V59.8688H189.43V54.3546C189.43 51.8247 190.735 50.7179 192.395 50.7179C193.937 50.7179 195.024 51.7259 195.024 53.6035V59.8688H196.012V53.6035C196.012 51.133 194.51 49.7693 192.415 49.7693Z" fill="#ADAFBB"/>
<path d="M203.946 49.7693C202.029 49.7693 200.507 50.7575 199.696 52.2793V49.9867H198.708V63.8216H199.696V57.5761C200.507 59.098 202.029 60.0862 203.946 60.0862C206.772 60.0862 209.065 57.8528 209.065 54.9277C209.065 52.0026 206.772 49.7693 203.946 49.7693ZM203.886 59.1375C201.534 59.1375 199.696 57.2797 199.696 54.9277C199.696 52.5758 201.534 50.7179 203.886 50.7179C206.238 50.7179 208.076 52.5758 208.076 54.9277C208.076 57.2797 206.238 59.1375 203.886 59.1375Z" fill="#ADAFBB"/>
<path d="M220.044 49.9867V52.22C219.214 50.7377 217.692 49.7693 215.795 49.7693C212.988 49.7693 210.676 52.0026 210.676 54.9277C210.676 57.8528 212.988 60.0862 215.795 60.0862C217.692 60.0862 219.214 59.1177 220.044 57.6354V59.8688H221.052V49.9867H220.044ZM215.874 59.1375C213.522 59.1375 211.684 57.2797 211.684 54.9277C211.684 52.5758 213.522 50.7179 215.874 50.7179C218.226 50.7179 220.044 52.5758 220.044 54.9277C220.044 57.2797 218.226 59.1375 215.874 59.1375Z" fill="#ADAFBB"/>
<path d="M228.514 49.7693C226.992 49.7693 225.727 50.4017 224.976 51.8643V49.9867H223.988V59.8688H224.976V54.651C224.976 51.9828 226.498 50.7179 228.435 50.7179C230.293 50.7179 231.34 51.9038 231.34 53.7221V59.8688H232.348V53.7221C232.348 51.3306 230.866 49.7693 228.514 49.7693Z" fill="#ADAFBB"/>
<path d="M242.086 49.9867L238.647 58.7817L234.654 49.9867H233.587L238.133 60.0466L237.915 60.5803C237.303 62.0231 236.295 63.0113 234.971 62.8927V63.8216C236.67 63.96 238.133 62.6753 238.884 60.7779L243.153 49.9867H242.086Z" fill="#ADAFBB"/>
<path d="M46.4392 7.93687C57.0919 18.5484 57.1253 35.7865 46.5138 46.4392L27.2999 65.7277L8.01142 46.5138C-2.64129 35.9022 -2.67467 18.6641 7.93687 8.01142C18.5484 -2.64129 35.7865 -2.67467 46.4392 7.93687Z" fill="#07847F"/>
<path d="M26.6171 42.2682C32.2541 42.5495 36.3968 39.7695 36.6287 34.741C36.8829 29.2282 32.5333 27.6298 28.6571 26.2417C24.6715 24.8108 24.0788 23.9598 24.1338 22.7679C24.1819 21.7249 25.152 20.84 27.0063 20.9325C29.3797 21.051 30.5503 22.2668 31.3545 24.1736L36.4967 21.4808C34.7823 17.5499 31.5391 15.3346 27.2742 15.1218C22.7868 14.8979 18.4251 17.5923 18.1932 22.6208C17.963 27.612 21.6599 29.6632 25.467 30.9359C29.3112 32.2104 30.7654 32.9177 30.6915 34.5194C30.6452 35.5251 29.889 36.6073 27.0705 36.4667C24.1407 36.3205 22.613 34.7882 21.7855 32.5816L16.5303 35.306C17.7997 39.2148 21.1655 41.9961 26.6171 42.2682Z" fill="white"/>
<path d="M27.2816 66.0115L17.1494 55.8794L27.2816 45.7472L37.4138 55.8794L27.2816 66.0115Z" fill="#FD6B36"/>
</svg>
