<svg width="88" height="106" viewBox="0 0 88 106" fill="none" xmlns="http://www.w3.org/2000/svg">
<path d="M74.5711 12.7449C91.6771 29.7847 91.7307 57.4652 74.6909 74.5711L43.8376 105.544L12.8646 74.6909C-4.24133 57.6511 -4.29493 29.9705 12.7449 12.8646C29.7847 -4.24133 57.4652 -4.29493 74.5711 12.7449Z" fill="#07847F"/>
<path d="M42.7412 67.8734C51.793 68.3251 58.4452 63.8611 58.8175 55.7864C59.2258 46.9341 52.2412 44.3674 46.017 42.1384C39.6169 39.8407 38.6652 38.4743 38.7535 36.5603C38.8307 34.8855 40.3885 33.4645 43.3661 33.6131C47.1773 33.8033 49.057 35.7556 50.3484 38.8175L58.6057 34.4935C55.8527 28.1813 50.6448 24.6241 43.7963 24.2823C36.5906 23.9228 29.5866 28.2493 29.2143 36.324C28.8447 44.3389 34.781 47.6327 40.8943 49.6763C47.0672 51.7229 49.4024 52.8586 49.2838 55.4305C49.2093 57.0455 47.9951 58.7834 43.4692 58.5575C38.7646 58.3227 36.3115 55.8623 34.9827 52.3188L26.5439 56.6937C28.5823 62.9703 33.9871 67.4366 42.7412 67.8734Z" fill="white"/>
<path d="M43.8081 106L27.5381 89.73L43.8081 73.46L60.0782 89.73L43.8081 106Z" fill="#FD6B36"/>
</svg>
